<svg aria-hidden="true" style="position: absolute; width: 0; height: 0; overflow: hidden;" version="1.1" xmlns="http://www.w3.org/2000/svg" xmlns:xlink="http://www.w3.org/1999/xlink">
<defs>
<symbol id="icon-checkmark">
<path d="M0 16.155l2.737-2.529c3.201 1.549 5.232 2.727 8.829 5.292 6.764-7.676 11.235-11.571 19.543-16.74l0.891 2.048c-6.852 5.979-11.869 12.639-19.095 25.597-4.457-5.248-7.432-8.595-12.905-13.668z"></path>
</symbol>
<symbol id="icon-telegram">
<path d="M16 0c-8.838 0-16 7.162-16 16s7.162 16 16 16 16-7.163 16-16-7.163-16-16-16zM23.863 10.969l-2.625 12.369c-0.181 0.881-0.712 1.087-1.45 0.681l-4-2.956-1.919 1.869c-0.225 0.219-0.4 0.4-0.8 0.4-0.519 0-0.431-0.194-0.606-0.688l-1.363-4.475-3.956-1.231c-0.856-0.262-0.862-0.85 0.194-1.269l15.412-5.95c0.7-0.319 1.381 0.169 1.113 1.25z"></path>
</symbol>
<symbol id="icon-logo_telegram_airplane" viewBox="0 0 32 32">
<path fill="#eceff1" style="fill: var(--color1, #eceff1)" d="M12.408 28.188c-0.865 0-0.717-0.327-1.016-1.148l-2.54-8.362 19.556-11.602-16 21.112z"></path>
<path fill="#cfd8dc" style="fill: var(--color2, #cfd8dc)" d="M12.408 28.188c0.667 0 0.962-0.305 1.333-0.667l3.556-3.458-4.436-2.674-0.453 6.799z"></path>
<path fill="#fff" style="fill: var(--color3, #fff)" d="M12.861 21.391l10.747 7.94c1.228 0.676 2.111 0.326 2.417-1.139l4.375-20.615c0.448-1.796-0.684-2.61-1.858-2.078l-25.688 9.906c-1.754 0.703-1.742 1.682-0.32 2.117l6.592 2.058 15.261-9.628c0.721-0.437 1.382-0.202 0.84 0.28l-12.366 11.159z"></path>
<path fill="#455a64" style="fill: var(--color4, #455a64)" d="M24.687 30.163c-0.402 0-0.843-0.132-1.32-0.395l-10.803-7.976c-0.121-0.089-0.195-0.228-0.203-0.378s0.053-0.295 0.165-0.396l12.796-11.515c0.205-0.185 0.521-0.169 0.706 0.037 0.185 0.205 0.168 0.521-0.037 0.706l-12.34 11.106 10.254 7.576c0.271 0.145 0.729 0.329 1.055 0.178 0.332-0.152 0.496-0.637 0.576-1.017l4.375-20.617c0.17-0.681 0.088-1.229-0.215-1.481-0.231-0.192-0.575-0.206-0.947-0.038l-25.716 9.918c-0.789 0.317-1.037 0.643-1.033 0.751 0.003 0.071 0.173 0.267 0.68 0.422l6.375 1.99 6.999-4.416c0.234-0.146 0.542-0.077 0.689 0.156s0.078 0.542-0.156 0.689l-7.194 4.539c-0.124 0.078-0.277 0.098-0.416 0.055l-6.592-2.058c-1.17-0.358-1.37-0.99-1.384-1.335-0.020-0.473 0.253-1.157 1.667-1.723l25.695-9.908c0.697-0.318 1.445-0.25 1.974 0.191 0.613 0.511 0.813 1.413 0.549 2.474l-4.371 20.598c-0.184 0.878-0.566 1.457-1.137 1.719-0.215 0.099-0.445 0.148-0.691 0.148z"></path>
<path fill="#455a64" style="fill: var(--color4, #455a64)" d="M24.687 30.163c-0.402 0-0.843-0.132-1.32-0.395l-6.72-4.959c-0.222-0.164-0.27-0.478-0.105-0.699 0.164-0.222 0.478-0.27 0.699-0.105l6.664 4.923c0.271 0.145 0.729 0.329 1.055 0.178 0.332-0.152 0.496-0.637 0.576-1.017l4.375-20.617c0.17-0.681 0.088-1.229-0.215-1.481-0.231-0.192-0.575-0.206-0.947-0.038l-25.716 9.918c-0.789 0.317-1.037 0.643-1.033 0.751 0.003 0.071 0.173 0.267 0.68 0.422l6.594 2.058c0.158 0.049 0.281 0.174 0.33 0.332l2.267 7.461c0.061 0.167 0.108 0.333 0.149 0.477 0.032 0.114 0.072 0.256 0.099 0.298-0.004-0.005 0.076 0.019 0.289 0.020 0.447 0 0.617-0.167 0.957-0.498l1.66-1.614c0.198-0.194 0.514-0.188 0.707 0.010 0.192 0.198 0.188 0.515-0.010 0.707l-1.632 1.585c-0.402 0.393-0.828 0.809-1.682 0.809-0.98 0-1.178-0.434-1.351-1.046-0.035-0.124-0.075-0.267-0.135-0.432l-2.198-7.233-6.339-1.979c-1.17-0.358-1.37-0.99-1.384-1.335-0.020-0.473 0.253-1.157 1.667-1.723l25.695-9.908c0.697-0.318 1.445-0.25 1.974 0.191 0.613 0.511 0.813 1.413 0.549 2.474l-4.371 20.598c-0.184 0.878-0.566 1.457-1.137 1.719-0.215 0.099-0.445 0.148-0.691 0.148z"></path>
<path fill="#455a64" style="fill: var(--color4, #455a64)" d="M18.5 14c0 0.275-0.225 0.5-0.5 0.5v0c-0.275 0-0.5-0.225-0.5-0.5v0c0-0.275 0.225-0.5 0.5-0.5v0c0.275 0 0.5 0.225 0.5 0.5v0z"></path>
</symbol>
<symbol id="icon-telegram_icon_136124" viewBox="0 0 32 32">
<path d="M13.040 24.867l0.373-5.64 10.24-9.227c0.453-0.413-0.093-0.613-0.693-0.253l-12.64 7.987-5.467-1.733c-1.173-0.333-1.187-1.147 0.267-1.733l21.293-8.213c0.973-0.44 1.907 0.24 1.533 1.733l-3.627 17.080c-0.253 1.213-0.987 1.507-2 0.947l-5.52-4.080-2.653 2.573c-0.307 0.307-0.56 0.56-1.107 0.56z"></path>
</symbol>
</defs>
</svg>
